<mxfile host="app.diagrams.net" modified="2023-04-14T04:52:56.904Z" agent="Mozilla/5.0 (Macintosh; Intel Mac OS X 10_15_7) AppleWebKit/537.36 (KHTML, like Gecko) Chrome/111.0.0.0 Safari/537.36" version="21.1.7" etag="625-BbhPqL3OF3tKtAfi" type="github">
  <diagram name="Page-1" id="5Sd8FaG5SkcldnLzxqyy">
    <mxGraphModel>
      <root>
        <mxCell id="0" />
        <mxCell id="1" parent="0" />
      </root>
    </mxGraphModel>
  </diagram>
</mxfile>
